<?xml version="1.0" encoding="iso-8859-1"?>
<!-- Generator: Adobe Illustrator 19.0.0, SVG Export Plug-In . SVG Version: 6.00 Build 0)  -->
<svg xmlns="http://www.w3.org/2000/svg" xmlns:xlink="http://www.w3.org/1999/xlink" version="1.1" id="Capa_1" x="0px" y="0px" viewBox="0 0 426.4 426.4" style="enable-background:new 0 0 426.4 426.4;" xml:space="preserve" width="512px" height="512px">
<g>
	<g>
		<path d="M259.2,227.2c-1.6-4-3.2-6.4-5.6-9.6c-2.4-2.4-4.8-4.8-8-6.4c-3.2-1.6-6.4-3.2-9.6-3.2c2.4-0.8,4.8-2.4,7.2-4.8    c2.4-1.6,4-4,5.6-6.4c1.6-2.4,2.4-4.8,3.2-7.2c0.8-2.4,0.8-5.6,0.8-8.8c0-4.8-0.8-9.6-2.4-13.6c-1.6-4-4-7.2-7.2-9.6    s-6.4-4-10.4-5.6c0-0.8,0-0.8,0-1.6V132c0-4.8-3.2-8-8-8s-8,3.2-8,8v17.6c-1.6,0-2.4,0-4,0h-8V132c0-4.8-3.2-8-8-8    c-4.8,0-8,3.2-8,8v17.6H184c-1.6,0-3.2,0.8-4,1.6c-1.6,0.8-1.6,2.4-1.6,5.6V268c0,2.4,0.8,4,1.6,5.6c1.6,0.8,2.4,1.6,4,1.6h4.8    v18.4c0,4.8,3.2,8,8,8c4.8,0,8-3.2,8-8v-18.4h12v18.4c0,4.8,3.2,8,8,8s8-3.2,8-8v-18.4c0-0.8,0-0.8,0-1.6c2.4-0.8,4.8-1.6,7.2-2.4    c3.2-1.6,6.4-3.2,8.8-4.8c2.4-1.6,4.8-4,6.4-7.2c1.6-2.4,3.2-5.6,4-8.8c0.8-3.2,1.6-7.2,1.6-11.2S260,231.2,259.2,227.2z     M194.4,163.2H212c4.8,0,8.8,0,11.2,1.6c3.2,0.8,5.6,2.4,7.2,4c1.6,1.6,3.2,4,4,6.4c0.8,2.4,1.6,4.8,1.6,8c0,2.4,0,5.6-1.6,8    c-0.8,2.4-2.4,4.8-4,6.4c-1.6,1.6-4,3.2-6.4,4.8c-2.4,0.8-6.4,1.6-10.4,1.6h-19.2V163.2z M241.6,248.8c-1.6,2.4-3.2,4.8-4.8,6.4    c-2.4,1.6-4.8,3.2-7.2,4c-3.2,0.8-6.4,1.6-9.6,1.6h-24v-44h20c4.8,0,9.6,0.8,12.8,1.6c3.2,0.8,6.4,2.4,8.8,4c2.4,1.6,4,4,5.6,7.2    c0.8,3.2,1.6,6.4,1.6,9.6C243.2,243.2,242.4,246.4,241.6,248.8z" fill="#91DC5A"/>
	</g>
</g>
<g>
	<g>
		<path d="M418.4,226.4c4.8,0,8-3.2,8-8s-3.2-8-8-8h-51.2v-37.6h51.2c4.8,0,8-3.2,8-8s-3.2-8-8-8h-51.2v-80    c0-10.4-8.8-19.2-19.2-19.2h-73.6V8c0-4.8-3.2-8-8-8s-8,3.2-8,8v51.2h-37.6V8c0-4.8-3.2-8-8-8s-8,3.2-8,8v51.2h-37.6V8    c0-4.8-3.2-8-8-8c-4.8,0-8,3.2-8,8v51.2H77.6c-10.4,0-19.2,8.8-19.2,19.2v80H8c-4.8,0-8,3.2-8,8c0,4.8,3.2,8,8,8h51.2V212H8    c-4.8,0-8,3.2-8,8s3.2,8,8,8h51.2v37.6H8V264c-4.8,0-8,3.2-8,8s3.2,8,8,8h51.2v68c0,10.4,8.8,19.2,19.2,19.2H152v51.2    c0,4.8,3.2,8,8,8s8-3.2,8-8v-51.2h37.6v51.2c0,4.8,3.2,8,8,8s8-3.2,8-8v-51.2h37.6v51.2c0,4.8,3.2,8,8,8s8-3.2,8-8v-51.2H348    c10.4,0,19.2-8.8,19.2-19.2v-68h51.2c4.8,0,8-3.2,8-8s-3.2-8-8-8h-51.2v-37.6H418.4z M74.4,77.6h0.8c0-1.6,1.6-3.2,3.2-3.2h127.2    v16h-98.4c-8.8,0-16.8,7.2-16.8,16.8v104h-16V77.6z M205.6,351.2h-128c-1.6,0-3.2-1.6-3.2-3.2V227.2h16.8v91.2    c0,8.8,7.2,16.8,16.8,16.8h97.6V351.2z M106.4,318.4l0.8-212l212,0.8v211.2c0,0,0,0.8-0.8,0.8L106.4,318.4z M351.2,348    c0,1.6-1.6,3.2-3.2,3.2H220.8v-16h97.6c8.8,0,16.8-7.2,16.8-16.8v-91.2h16V348z M351.2,211.2h-16v-104c0-8.8-7.2-16.8-16.8-16.8    h-97.6v-16H348c1.6,0,3.2,1.6,3.2,3.2V211.2z" fill="#91DC5A"/>
	</g>
</g>
<g>
</g>
<g>
</g>
<g>
</g>
<g>
</g>
<g>
</g>
<g>
</g>
<g>
</g>
<g>
</g>
<g>
</g>
<g>
</g>
<g>
</g>
<g>
</g>
<g>
</g>
<g>
</g>
<g>
</g>
</svg>
